<svg xmlns="http://www.w3.org/2000/svg" viewBox="0 0 1600 900" role="img" aria-labelledby="title desc">
  <title id="title">Una pila di libri non ancora letti su un comodino</title>
  <desc id="desc">Illustrazione editoriale con libri impilati, una lampada calda e un taccuino, pensata come immagine per un post sui libri ancora da leggere.</desc>
  <defs>
    <linearGradient id="wall" x1="0" x2="1" y1="0" y2="1">
      <stop offset="0" stop-color="#D8F5E5"/>
      <stop offset="0.55" stop-color="#FAF8EF"/>
      <stop offset="1" stop-color="#FFF7B8"/>
    </linearGradient>
    <linearGradient id="table" x1="0" x2="0" y1="0" y2="1">
      <stop offset="0" stop-color="#E85F00"/>
      <stop offset="1" stop-color="#9D4100"/>
    </linearGradient>
    <filter id="softShadow" x="-30%" y="-30%" width="160%" height="160%">
      <feDropShadow dx="0" dy="24" stdDeviation="24" flood-color="#141414" flood-opacity="0.22"/>
    </filter>
    <filter id="lampGlow" x="-80%" y="-80%" width="260%" height="260%">
      <feGaussianBlur stdDeviation="48"/>
    </filter>
  </defs>

  <rect width="1600" height="900" fill="url(#wall)"/>
  <circle cx="1200" cy="245" r="250" fill="#FFF7B8" opacity="0.55" filter="url(#lampGlow)"/>
  <path d="M0 710C250 668 429 737 665 702C920 664 1138 647 1600 700V900H0Z" fill="#141414" opacity="0.06"/>
  <rect y="650" width="1600" height="250" fill="url(#table)"/>

  <g transform="translate(920 190)" filter="url(#softShadow)">
    <path d="M210 0h150l72 180H138Z" fill="#FFF7B8"/>
    <path d="M178 180h214l-30 26H208Z" fill="#141414" opacity="0.14"/>
    <rect x="260" y="205" width="34" height="245" fill="#9299B2"/>
    <ellipse cx="277" cy="468" rx="120" ry="24" fill="#141414" opacity="0.16"/>
    <rect x="170" y="438" width="214" height="42" rx="3" fill="#9299B2"/>
  </g>

  <g transform="translate(350 245)" filter="url(#softShadow)">
    <rect x="52" y="330" width="470" height="72" rx="8" fill="#FFF7B8"/>
    <rect x="88" y="340" width="370" height="10" fill="#141414" opacity="0.14"/>
    <rect x="72" y="262" width="430" height="76" rx="8" fill="#9299B2"/>
    <rect x="108" y="275" width="300" height="12" fill="#FAF8EF" opacity="0.55"/>
    <rect x="28" y="188" width="470" height="82" rx="8" fill="#D8F5E5"/>
    <rect x="70" y="204" width="360" height="11" fill="#141414" opacity="0.18"/>
    <rect x="96" y="118" width="430" height="78" rx="8" fill="#E85F00"/>
    <rect x="134" y="133" width="240" height="12" fill="#FFF7B8" opacity="0.75"/>
    <rect x="60" y="42" width="470" height="84" rx="8" fill="#FAF8EF"/>
    <rect x="105" y="58" width="330" height="11" fill="#141414" opacity="0.18"/>
    <rect x="248" y="0" width="132" height="52" rx="6" fill="#141414"/>
    <rect x="270" y="15" width="78" height="8" fill="#FFF7B8" opacity="0.8"/>
  </g>

  <g transform="translate(780 545) rotate(-8)" filter="url(#softShadow)">
    <rect width="250" height="162" rx="10" fill="#FAF8EF"/>
    <rect x="28" y="34" width="118" height="8" fill="#141414" opacity="0.24"/>
    <rect x="28" y="59" width="186" height="7" fill="#141414" opacity="0.16"/>
    <rect x="28" y="83" width="150" height="7" fill="#141414" opacity="0.16"/>
    <rect x="28" y="107" width="172" height="7" fill="#141414" opacity="0.16"/>
    <circle cx="204" cy="124" r="18" fill="#E85F00" opacity="0.9"/>
  </g>
</svg>
