<svg xmlns="http://www.w3.org/2000/svg" viewBox="0 0 1200 840" role="img" aria-label="Una tazza di tè su un tavolo con luce calda">
  <defs>
    <linearGradient id="bg" x1="0" y1="0" x2="1" y2="1">
      <stop offset="0" stop-color="#f6efe0"/>
      <stop offset="0.48" stop-color="#d6e2d2"/>
      <stop offset="1" stop-color="#34484f"/>
    </linearGradient>
    <radialGradient id="light" cx="35%" cy="25%" r="55%">
      <stop offset="0" stop-color="#fff8df" stop-opacity="0.9"/>
      <stop offset="0.52" stop-color="#f2b36d" stop-opacity="0.28"/>
      <stop offset="1" stop-color="#f2b36d" stop-opacity="0"/>
    </radialGradient>
    <filter id="soft" x="-20%" y="-20%" width="140%" height="140%">
      <feGaussianBlur stdDeviation="14"/>
    </filter>
  </defs>
  <rect width="1200" height="840" fill="url(#bg)"/>
  <rect width="1200" height="840" fill="url(#light)"/>
  <path d="M0 570c190-62 324-80 485-50 162 30 301 95 469 83 104-7 182-43 246-88v325H0Z" fill="#24373e" opacity="0.78"/>
  <path d="M0 648c171-34 327-43 481-18 185 30 314 77 474 48 102-19 181-65 245-119v281H0Z" fill="#17282e" opacity="0.9"/>
  <ellipse cx="595" cy="628" rx="310" ry="74" fill="#132227" opacity="0.36" filter="url(#soft)"/>
  <path d="M382 360h354l-38 220c-11 64-67 111-132 111h-14c-65 0-121-47-132-111Z" fill="#fbf6e8"/>
  <path d="M416 397h286l-29 168c-9 51-53 88-105 88h-18c-52 0-96-37-105-88Z" fill="#e7eee0"/>
  <ellipse cx="559" cy="360" rx="177" ry="44" fill="#fffaf0"/>
  <ellipse cx="559" cy="358" rx="134" ry="26" fill="#b96c43" opacity="0.92"/>
  <path d="M727 413c72 6 123 46 118 103-5 54-57 91-124 86l10-59c31 0 54-16 57-38 3-27-22-46-69-51Z" fill="none" stroke="#fbf6e8" stroke-width="34" stroke-linecap="round"/>
  <path d="M475 303c-21-44 36-61 14-111M559 292c-28-59 54-76 24-147M637 307c-18-40 34-57 15-101" fill="none" stroke="#fff8df" stroke-width="11" stroke-linecap="round" opacity="0.72" filter="url(#soft)"/>
  <path d="M470 300c-21-44 36-61 14-111M554 289c-28-59 54-76 24-147M632 304c-18-40 34-57 15-101" fill="none" stroke="#fffaf0" stroke-width="5" stroke-linecap="round" opacity="0.72"/>
  <g opacity="0.72">
    <circle cx="238" cy="221" r="5" fill="#fff8df"/>
    <circle cx="923" cy="183" r="4" fill="#fff8df"/>
    <circle cx="1002" cy="327" r="6" fill="#f2b36d"/>
    <circle cx="185" cy="428" r="4" fill="#f2b36d"/>
    <circle cx="810" cy="274" r="3" fill="#fff8df"/>
  </g>
</svg>
